<?xml version="1.0" encoding="UTF-8" standalone="no"?>
<!-- Created with Inkscape (http://www.inkscape.org/) -->

<svg
   xmlns:osb="http://www.openswatchbook.org/uri/2009/osb"
   xmlns:dc="http://purl.org/dc/elements/1.1/"
   xmlns:cc="http://creativecommons.org/ns#"
   xmlns:rdf="http://www.w3.org/1999/02/22-rdf-syntax-ns#"
   xmlns:svg="http://www.w3.org/2000/svg"
   xmlns="http://www.w3.org/2000/svg"
   xmlns:sodipodi="http://sodipodi.sourceforge.net/DTD/sodipodi-0.dtd"
   xmlns:inkscape="http://www.inkscape.org/namespaces/inkscape"
   width="136"
   height="68"
   viewBox="0 0 35.983332 17.991668"
   version="1.1"
   id="svg967"
   sodipodi:docname="fire2.svg"
   inkscape:version="0.92.3 (2405546, 2018-03-11)">
  <defs
     id="defs961">
    <linearGradient
       id="linearGradient2982"
       osb:paint="gradient">
      <stop
         style="stop-color:#000000;stop-opacity:1;"
         offset="0"
         id="stop2978" />
      <stop
         style="stop-color:#000000;stop-opacity:0;"
         offset="1"
         id="stop2980" />
    </linearGradient>
  </defs>
  <sodipodi:namedview
     id="base"
     pagecolor="#ffffff"
     bordercolor="#666666"
     borderopacity="1.0"
     inkscape:pageopacity="0.0"
     inkscape:pageshadow="2"
     inkscape:zoom="11.2"
     inkscape:cx="54.709258"
     inkscape:cy="31.200498"
     inkscape:document-units="px"
     inkscape:current-layer="layer1"
     showgrid="false"
     units="px"
     showguides="true"
     inkscape:guide-bbox="true"
     inkscape:snap-global="true"
     inkscape:window-width="1920"
     inkscape:window-height="1017"
     inkscape:window-x="1912"
     inkscape:window-y="-8"
     inkscape:window-maximized="1">
    <sodipodi:guide
       position="9.3210246,8.4666667"
       orientation="0,1"
       id="guide840"
       inkscape:locked="false"
       inkscape:label=""
       inkscape:color="rgb(0,0,255)" />
    <sodipodi:guide
       position="3.9088168,8.9958334"
       orientation="0,1"
       id="guide842"
       inkscape:locked="false"
       inkscape:label=""
       inkscape:color="rgb(0,0,255)" />
    <sodipodi:guide
       position="8.9958334,5.6293647"
       orientation="1,0"
       id="guide844"
       inkscape:locked="false"
       inkscape:label=""
       inkscape:color="rgb(0,0,255)" />
    <sodipodi:guide
       position="4.4979167,5.3286864"
       orientation="1,0"
       id="guide846"
       inkscape:locked="false"
       inkscape:label=""
       inkscape:color="rgb(0,0,255)" />
    <sodipodi:guide
       position="17.4625,1.9878172"
       orientation="1,0"
       id="guide866"
       inkscape:locked="false"
       inkscape:label=""
       inkscape:color="rgb(0,0,255)" />
    <sodipodi:guide
       position="17.991667,3.1738258"
       orientation="1,0"
       id="guide868"
       inkscape:locked="false"
       inkscape:label=""
       inkscape:color="rgb(0,0,255)" />
    <sodipodi:guide
       position="26.9875,4.7607387"
       orientation="1,0"
       id="guide888"
       inkscape:locked="false"
       inkscape:label=""
       inkscape:color="rgb(0,0,255)" />
    <sodipodi:guide
       position="22.489584,7.7842253"
       orientation="1,0"
       id="guide890"
       inkscape:locked="false"
       inkscape:label=""
       inkscape:color="rgb(0,0,255)" />
    <sodipodi:guide
       position="11.709746,4.4979167"
       orientation="0,1"
       id="guide892"
       inkscape:locked="false"
       inkscape:label=""
       inkscape:color="rgb(0,0,255)" />
    <sodipodi:guide
       position="12.000744,13.49375"
       orientation="0,1"
       id="guide914"
       inkscape:locked="false"
       inkscape:label=""
       inkscape:color="rgb(0,0,255)" />
  </sodipodi:namedview>
  <metadata
     id="metadata964">
    <rdf:RDF>
      <cc:Work
         rdf:about="">
        <dc:format>image/svg+xml</dc:format>
        <dc:type
           rdf:resource="http://purl.org/dc/dcmitype/StillImage" />
        <dc:title></dc:title>
      </cc:Work>
    </rdf:RDF>
  </metadata>
  <g
     inkscape:label="Calque 1"
     inkscape:groupmode="layer"
     id="layer1"
     transform="translate(0,-279.00831)">
    <path
       style="fill:#ffdd55;stroke:none;stroke-width:0.26458704px;stroke-linecap:butt;stroke-linejoin:miter;stroke-opacity:1"
       d="m 0.40005,296.99995 c 0,-0.8032 0.30582861,-1.69807 0.16536465,-3.04744 C 0.40005,292.3639 0.62821645,291.56174 0.75440997,290.88146 0.84561257,290.38995 0.40005,289.53605 0.40005,288.53328 c 0,0 0.0201299,-0.52913 4.086985,-0.52913 4.0786673,0 4.086985,0.52913 4.086985,0.52913 0,1.42742 -0.5622558,1.97675 -0.2362466,3.29312 0.3438096,1.38821 0.023601,1.86625 -0.023601,2.8112 -0.047001,0.94021 0.2598773,1.12199 0.2598773,2.36235 z"
       id="path1512-1"
       inkscape:connector-curvature="0"
       sodipodi:nodetypes="csscscsscc" />
    <path
       style="opacity:0.33000004;fill:#ff6600;stroke:none;stroke-width:0.26458704px;stroke-linecap:butt;stroke-linejoin:miter;stroke-opacity:1"
       d="m 1.321396,296.99995 c 0,-1.37017 0.5823963,-2.0498 0.2834879,-3.07106 -0.2834879,-0.96857 0.283498,-1.88988 0.070902,-2.78757 -0.2026257,-0.8555 -0.3543599,-1.30875 -0.3543599,-2.60804 0,0 0.028831,-0.41101 3.201075,-0.41101 3.1722446,0 3.2010751,0.41101 3.2010751,0.41101 0,1.28779 -0.779602,2.13557 -0.3779907,2.84427 0.4016113,0.70871 -0.1397039,1.91465 -0.070902,2.76395 0.081502,1.00598 0.4488627,1.3324 0.4488627,2.85845 z"
       id="path2994-2"
       inkscape:connector-curvature="0"
       sodipodi:nodetypes="csscscsscc" />
    <g
       transform="matrix(0.99555573,0,0,1,8.9958335,-9.2510115)"
       id="layer1-3"
       inkscape:label="Calque 1">
      <path
         sodipodi:nodetypes="cscscc"
         inkscape:connector-curvature="0"
         id="path1512"
         d="m 0,288.68451 c 2.3387277,0.0236 2.9308763,0.83907 4.2758558,0.66145 3.3108914,-0.43722 2.5337817,2.02169 4.228607,3.75615 -3.1799814,0.83151 -1.6210231,1.99181 -5.1735489,2.57496 C 2.4019574,295.82956 1.2403575,296.85828 0,296.85828 Z"
         style="fill:#ffdd55;stroke:none;stroke-width:0.26458332px;stroke-linecap:butt;stroke-linejoin:miter;stroke-opacity:1" />
      <path
         sodipodi:nodetypes="csscscc"
         inkscape:connector-curvature="0"
         id="path2994"
         d="m 0,289.60583 c 1.3701637,0 1.8371804,0.74774 2.858445,0.44884 0.9685653,-0.28348 2.0226617,-0.006 2.8111976,0.4725 0.6469719,0.39285 0.4819652,1.05971 1.8426336,2.31511 -1.9843751,0.28348 -2.4343686,2.05728 -3.7088915,1.93709 C 2.7985689,294.68467 1.5260532,296.0078 0,296.0078 Z"
         style="opacity:0.33000004;fill:#ff6600;stroke:none;stroke-width:0.26458332px;stroke-linecap:butt;stroke-linejoin:miter;stroke-opacity:1" />
    </g>
    <g
       transform="matrix(0,-0.99555573,1,0,-288.28422,288.53328)"
       id="layer1-3-3"
       inkscape:label="Calque 1">
      <path
         sodipodi:nodetypes="cscscc"
         inkscape:connector-curvature="0"
         id="path1512-14"
         d="m 0,288.68451 c 2.3387277,0.0236 2.9308763,0.83907 4.2758558,0.66145 3.3108914,-0.43722 2.5337817,2.02169 4.228607,3.75615 -3.1799814,0.83151 -1.6210231,1.99181 -5.1735489,2.57496 C 2.4019574,295.82956 1.2403575,296.85828 0,296.85828 Z"
         style="fill:#ffdd55;stroke:none;stroke-width:0.26458332px;stroke-linecap:butt;stroke-linejoin:miter;stroke-opacity:1" />
      <path
         sodipodi:nodetypes="csscscc"
         inkscape:connector-curvature="0"
         id="path2994-8"
         d="m 0,289.60583 c 1.3701637,0 1.8371804,0.74774 2.858445,0.44884 0.9685653,-0.28348 2.0226617,-0.006 2.8111976,0.4725 0.6469719,0.39285 0.4819652,1.05971 1.8426336,2.31511 -1.9843751,0.28348 -2.4343686,2.05728 -3.7088915,1.93709 C 2.7985689,294.68467 1.5260532,296.0078 0,296.0078 Z"
         style="opacity:0.33000004;fill:#ff6600;stroke:none;stroke-width:0.26458332px;stroke-linecap:butt;stroke-linejoin:miter;stroke-opacity:1" />
    </g>
    <g
       transform="matrix(0,0.99555573,-1,0,315.25238,279.00831)"
       id="layer1-3-0"
       inkscape:label="Calque 1">
      <path
         sodipodi:nodetypes="cscscc"
         inkscape:connector-curvature="0"
         id="path1512-16"
         d="m 0,288.68451 c 2.3387277,0.0236 2.9308763,0.83907 4.2758558,0.66145 3.3108914,-0.43722 2.5337817,2.02169 4.228607,3.75615 -3.1799814,0.83151 -1.6210231,1.99181 -5.1735489,2.57496 C 2.4019574,295.82956 1.2403575,296.85828 0,296.85828 Z"
         style="fill:#ffdd55;stroke:none;stroke-width:0.26458332px;stroke-linecap:butt;stroke-linejoin:miter;stroke-opacity:1" />
      <path
         sodipodi:nodetypes="csscscc"
         inkscape:connector-curvature="0"
         id="path2994-7"
         d="m 0,289.60583 c 1.3701637,0 1.8371804,0.74774 2.858445,0.44884 0.9685653,-0.28348 2.0226617,-0.006 2.8111976,0.4725 0.6469719,0.39285 0.4819652,1.05971 1.8426336,2.31511 -1.9843751,0.28348 -2.4343686,2.05728 -3.7088915,1.93709 C 2.7985689,294.68467 1.5260532,296.0078 0,296.0078 Z"
         style="opacity:0.33000004;fill:#ff6600;stroke:none;stroke-width:0.26458332px;stroke-linecap:butt;stroke-linejoin:miter;stroke-opacity:1" />
    </g>
    <g
       transform="matrix(-0.99555573,0,0,-1,35.983334,576.60834)"
       id="layer1-3-0-7"
       inkscape:label="Calque 1">
      <path
         sodipodi:nodetypes="cscscc"
         inkscape:connector-curvature="0"
         id="path1512-16-8"
         d="m 0,288.68451 c 2.3387277,0.0236 2.9308763,0.83907 4.2758558,0.66145 3.3108914,-0.43722 2.5337817,2.02169 4.228607,3.75615 -3.1799814,0.83151 -1.6210231,1.99181 -5.1735489,2.57496 C 2.4019574,295.82956 1.2403575,296.85828 0,296.85828 Z"
         style="fill:#ffdd55;stroke:none;stroke-width:0.26458332px;stroke-linecap:butt;stroke-linejoin:miter;stroke-opacity:1" />
      <path
         sodipodi:nodetypes="csscscc"
         inkscape:connector-curvature="0"
         id="path2994-7-6"
         d="m 0,289.60583 c 1.3701637,0 1.8371804,0.74774 2.858445,0.44884 0.9685653,-0.28348 2.0226617,-0.006 2.8111976,0.4725 0.6469719,0.39285 0.4819652,1.05971 1.8426336,2.31511 -1.9843751,0.28348 -2.4343686,2.05728 -3.7088915,1.93709 C 2.7985689,294.68467 1.5260532,296.0078 0,296.0078 Z"
         style="opacity:0.33000004;fill:#ff6600;stroke:none;stroke-width:0.26458332px;stroke-linecap:butt;stroke-linejoin:miter;stroke-opacity:1" />
    </g>
    <path
       style="fill:#ffdd55;stroke:none;stroke-width:0.26458704px;stroke-linecap:butt;stroke-linejoin:miter;stroke-opacity:1"
       d="m 8.9992117,288.42598 c 0.8032,0 1.6980703,0.30583 3.0474403,0.16536 1.58861,-0.16536 2.39077,0.0628 3.07105,0.189 0.49151,0.0912 1.34541,-0.35436 2.34818,-0.35436 0,0 0.52913,0.0201 0.52913,4.08698 0,4.07867 -0.52913,4.08699 -0.52913,4.08699 -1.42742,0 -1.97675,-0.56226 -3.29312,-0.23625 -1.38821,0.34381 -1.86625,0.0236 -2.8112,-0.0236 -0.94021,-0.047 -1.12199,0.25988 -2.3623503,0.25988 z"
       id="path1512-1-8"
       inkscape:connector-curvature="0"
       sodipodi:nodetypes="csscscsscc" />
    <path
       style="opacity:0.33000004;fill:#ff6600;stroke:none;stroke-width:0.26458704px;stroke-linecap:butt;stroke-linejoin:miter;stroke-opacity:1"
       d="m 8.9992117,289.34733 c 1.3701703,0 2.0498003,0.58239 3.0710603,0.28348 0.96857,-0.28348 1.88988,0.2835 2.78757,0.0709 0.8555,-0.20262 1.30875,-0.35436 2.60804,-0.35436 0,0 0.41101,0.0288 0.41101,3.20108 0,3.17224 -0.41101,3.20107 -0.41101,3.20107 -1.28779,0 -2.13557,-0.7796 -2.84427,-0.37799 -0.70871,0.40161 -1.91465,-0.1397 -2.76395,-0.0709 -1.00598,0.0815 -1.3324,0.44887 -2.8584503,0.44887 z"
       id="path2994-2-9"
       inkscape:connector-curvature="0"
       sodipodi:nodetypes="csscscsscc" />
    <path
       style="fill:#ffdd55;stroke:none;stroke-width:0.26458704px;stroke-linecap:butt;stroke-linejoin:miter;stroke-opacity:1"
       d="m 26.572001,288.00419 c 0,0.8032 -0.305829,1.69807 -0.165365,3.04744 0.165365,1.58861 -0.0628,2.39077 -0.188995,3.07105 -0.0912,0.49151 0.35436,1.34541 0.35436,2.34818 0,0 -0.02013,0.52913 -4.086985,0.52913 -4.078667,0 -4.086985,-0.52913 -4.086985,-0.52913 0,-1.42742 0.562256,-1.97675 0.236247,-3.29312 -0.34381,-1.38821 -0.0236,-1.86625 0.0236,-2.8112 0.047,-0.94021 -0.259878,-1.12199 -0.259878,-2.36235 z"
       id="path1512-1-9"
       inkscape:connector-curvature="0"
       sodipodi:nodetypes="csscscsscc" />
    <path
       style="opacity:0.33000004;fill:#ff6600;stroke:none;stroke-width:0.26458704px;stroke-linecap:butt;stroke-linejoin:miter;stroke-opacity:1"
       d="m 25.650655,288.00419 c 0,1.37017 -0.582396,2.0498 -0.283488,3.07106 0.283488,0.96857 -0.283498,1.88988 -0.0709,2.78757 0.202626,0.8555 0.35436,1.30875 0.35436,2.60804 0,0 -0.02883,0.41101 -3.201075,0.41101 -3.172244,0 -3.201075,-0.41101 -3.201075,-0.41101 0,-1.28779 0.779602,-2.13557 0.377991,-2.84427 -0.401612,-0.70871 0.139704,-1.91465 0.0709,-2.76395 -0.0815,-1.00598 -0.448863,-1.3324 -0.448863,-2.85845 z"
       id="path2994-2-0"
       inkscape:connector-curvature="0"
       sodipodi:nodetypes="csscscsscc" />
    <path
       style="fill:#ffdd55;stroke:none;stroke-width:0.26458704px;stroke-linecap:butt;stroke-linejoin:miter;stroke-opacity:1"
       d="m 35.983301,296.59998 c -0.8032,0 -1.69807,-0.30583 -3.04744,-0.16536 -1.58861,0.16536 -2.39077,-0.0628 -3.07105,-0.189 -0.491511,-0.0912 -1.34541,0.35436 -2.34818,0.35436 0,0 -0.529131,-0.0201 -0.529131,-4.08698 0,-4.07867 0.529131,-4.08699 0.529131,-4.08699 1.42742,0 1.97675,0.56226 3.29312,0.23625 1.38821,-0.34381 1.86625,-0.0236 2.8112,0.0236 0.94021,0.047 1.12199,-0.25988 2.36235,-0.25988 z"
       id="path1512-1-8-7"
       inkscape:connector-curvature="0"
       sodipodi:nodetypes="csscscsscc" />
    <path
       style="opacity:0.33000004;fill:#ff6600;stroke:none;stroke-width:0.26458704px;stroke-linecap:butt;stroke-linejoin:miter;stroke-opacity:1"
       d="m 35.983301,295.67863 c -1.37017,0 -2.0498,-0.58239 -3.07106,-0.28348 -0.96857,0.28348 -1.88988,-0.2835 -2.78757,-0.0709 -0.8555,0.20262 -1.308751,0.35436 -2.60804,0.35436 0,0 -0.411011,-0.0288 -0.411011,-3.20108 0,-3.17224 0.411011,-3.20107 0.411011,-3.20107 1.28779,0 2.13557,0.7796 2.84427,0.37799 0.70871,-0.40161 1.91465,0.1397 2.76395,0.0709 1.00598,-0.0815 1.3324,-0.44887 2.85845,-0.44887 z"
       id="path2994-2-9-5"
       inkscape:connector-curvature="0"
       sodipodi:nodetypes="csscscsscc" />
  </g>
</svg>
